<svg xmlns="http://www.w3.org/2000/svg" xmlns:xlink="http://www.w3.org/1999/xlink" width="1920" height="900" viewBox="0 0 1920 900">
  <defs>
    <clipPath id="clip-path">
      <path id="path468" d="M1467.676-1870.856h3.775v-4.328h-3.775Z" transform="translate(-1467.676 1875.185)"/>
    </clipPath>
    <clipPath id="clip-Carousel1">
      <rect width="1920" height="900"/>
    </clipPath>
  </defs>
  <g id="Carousel1" clip-path="url(#clip-Carousel1)">
    <rect width="1920" height="900" fill="#005fae"/>
    <g id="g10" transform="translate(663 2726.812)">
      <g id="g12" transform="translate(0 -2666.66)">
        <path id="path14" d="M1333.828-2666.66h0Z" transform="translate(0 2666.66)" fill="#ebf3fa"/>
        <path id="path16" d="M1068.388-985.636s42.429,10.509,40.286,19.716-46.564-15.74-46.564-15.74-32.752,34.6-37.309,52.236c0,0,47.834-7.994,43.838.3S1015.2-909.77,1015.2-909.77s-22.485,40.908-2.753,58.9,34.875,11.943,38.566,6.056,18-48.229,22.247-44.868,1.68,35.43-8.051,49.254c0,0,42.72.4,48.924-23.482s-3.339-36.88.725-51.559,10.946-23.482,11.693-14.784-9.87,31.7-5.633,47.231,6.069,27.326,17.255,7.8,22.3-58.938,11.093-73.4c-.485-.63-.952-1.229-1.4-1.807a9,9,0,0,1,1.4,1.807c3.326-2.983,14.663-4.349,23.208-4.969,1.414.011,3.415-.094,6.171-.352h0c1.223-.052,2.219-.089,2.912-.105,18.567.273,44.674,17.72,44.674,17.72l2.632-4.054c-24.178-23.666-53.162-17.1-53.162-17.1-22.088,2.652-37.641-5.6-37.641-5.6s-5.06-50.54-38.169-44.311c0,0-21.578,7.384-31.5,21.754" transform="translate(-669.431 1661.302)" fill="#d2e3fc"/>
        <path id="path18" d="M2317.372-2088.132c-11.3-49.3-81.728-33.891-81.728-33.891s-47.823,86.27-61.73,88.328,28.691-83.2,28.691-83.2c-26.952-3.078-95.64,35.95-95.64,35.95s4.344,100.655-9.568,98.6,0-89.353,0-89.353c-26.081,9.243-50.428,45.188-50.428,45.188-30.429,58.544,34.778,101.685,34.778,101.685s.871,34.916-17.388,74.972h0a128.342,128.342,0,0,0-8.31,19.969h7.114q.867-3.38,1.929-6.518l.013-.042.031-.089c.485-1.3,1.187-3.146,2.058-5.394l0-.01,0-.01c2.17-5.021,3.641-8.734,4.566-11.413l.009-.026c6.509-15.772,15.886-36.318,22.141-40.63a17.594,17.594,0,0,1-1.521-3.85q.727,1.844,1.521,3.85c12.174,30.814,73.036,35.95,106.947,27.731s19.127-19.511.867-37.852-56.515-13.5-67.817-20.688,5.215-14.38,27.824-12.326,33.906,28.76,70.426,32.867,64.34-77.031,64.34-77.031c-25.214,9.243-70.427-7.19-72.165-17.463s65.211-9.243,75.642-12.321,28.7-27.731,17.389-77.032" transform="translate(-1358.999 2337.939)" fill="#dfebfd"/>
        <path id="path20" d="M830.951-2044.69c15.568-29.432,58.807-3.036,58.807-3.036s16.723,67.236,25.429,71.806-4.8-60.781-4.8-60.781c18.045,4.265,56.214,45.624,56.214,45.624s-19.6,64.458-10.214,66.354,14.893-58.114,14.893-58.114c15.424,12.075,25.266,41.118,25.266,41.118,10.035,45.157-39.567,58.045-39.567,58.045s-6.386,22.51-1.187,52.809h0a94.221,94.221,0,0,1,2.077,14.921l-4.625-1.654c0-1.6-.056-3.167-.169-4.69l0-.026-.005-.068c-.1-.956-.248-2.321-.44-3.986v-.016c-.575-3.771-.912-6.529-1.069-8.487v-.016c-1.606-11.775-4.28-27.321-7.63-31.575a10.553,10.553,0,0,0,1.632-2.154l-1.632,2.154c-13.053,17.205-53.494,6.391-74.179-6.838s-9.189-17.143,5.743-24.821,39.009,4.365,47.559,2.316-1-10.567-16.042-14.49-26.848,10.82-51.284,5-29.009-65.067-29.009-65.067c14.859,11.88,47,11.707,49.847,5.431s-40.872-21.181-47.145-25.609-14.04-24.71,1.529-54.148" transform="translate(-547.789 2298.12)" fill="#d2e3fc"/>
        <path id="path22" d="M1702.82-2048.214c-10.9-21.434-42.327-3.073-42.327-3.073s-12.774,48.182-19.1,51.343,4.113-43.712,4.113-43.712c-13.045,2.8-40.984,32.016-40.984,32.016s13.423,46.722,6.638,47.951-10.1-42.09-10.1-42.09c-11.244,8.472-18.647,29.243-18.647,29.243-7.719,32.373,27.873,42.4,27.873,42.4s4.357,16.313.285,38.056h0a67.984,67.984,0,0,0-1.659,10.719l3.352-1.124q.027-1.733.173-3.377v-.021l0-.047c.084-.688.2-1.665.36-2.863v-.01c.458-2.71.729-4.69.863-6.1v-.016c1.285-8.45,3.379-19.611,5.838-22.625a7.839,7.839,0,0,1-1.152-1.576q.554.749,1.152,1.576c9.216,12.594,38.463,5.409,53.508-3.808s6.8-12.206-3.868-17.967-28.148,2.558-34.284.951.831-7.595,11.711-10.194,19.225,8.2,36.889,4.375,21.6-46.428,21.6-46.428c-10.835,8.33-33.986,7.72-35.964,3.157s29.669-14.637,34.235-17.736,10.382-17.589-.516-39.027" transform="translate(-1054.019 2298.121)" fill="#dfebfd"/>
        <path id="path24" d="M351.685-593.625a12.246,12.246,0,0,1-1.352.347c.451-.126.9-.247,1.352-.347" transform="translate(-233.511 1410.198)" fill="#95c38b"/>
        <path id="path26" d="M1643.588-1352.6,1622.2-1052.238s-2.241,18.209,9.225,18.24c18.847.052,93.822,0,93.822,0s-14.187-3.787-14.014-12.316c.2-10.052,25-309.123,25-309.123l-92.643,2.841" transform="translate(-1081.148 1871.931)" fill="#d86713"/>
        <path id="path28" d="M1743.655-1047.832c-3.708.01-75.321.278-93.675,0-8-.121-9.4-8.4-9.47-13.766a31.392,31.392,0,0,1,.24-4.469l.555-7.81,1.419-19.894,1.254-17.584,1.61-22.589,1.351-19.064,15.2-213.426,92.643-2.842s-10.439,125.161-17.824,216.268c-.827,10.152-1.61,19.884-2.334,28.97q-.353,4.349-.685,8.5c-.685,8.618-1.307,16.533-1.854,23.524q-.433,5.53-.792,10.241c-.943,12.29-1.494,20.136-1.5,21.628a14.357,14.357,0,0,0,.182,2.427c1.521,9.574,12.293,9.89,13.685,9.89" transform="translate(-1093.467 1880.319)" fill="#f99746"/>
        <path id="path30" d="M1011.964-1763.156,1064.053-1516l7.132,33.849,24.26,115.119h450.723l-89.42-396.128H1011.964" transform="translate(-674.517 2119.048)" fill="#f99746"/>
        <path id="path32" d="M997.531-1763.156l-7.219,2.841,81.1,401.884,9.6-8.6-83.483-396.128" transform="translate(-660.085 2119.048)" fill="#f99746"/>
        <path id="path34" d="M1233.534-748.907h447.951l12.369-8.6H1243.133l-9.6,8.6" transform="translate(-822.203 1509.525)" fill="#d86713"/>
        <path id="path36" d="M1705.276-547.477h96.987v-5.441h-96.987Z" transform="translate(-1136.638 1385.526)" fill="#f1a34f"/>
        <path id="path38" d="M1524.334-1440.02l-73.134-317.9H1013.067l-1.1-5.236H1456.75l72.889,322.426-5.3.709" transform="translate(-674.517 2119.048)" fill="#f1a34f"/>
        <path id="path40" d="M1738.87-735.678l-.5,4.16-91.212,21.77,1.254-17.584.6-8.345h89.865" transform="translate(-1097.899 1496.296)" fill="#d86713"/>
        <path id="path42" d="M1694.332-605.334h-22.039c-9.546-.016-17.647-.052-22.306-.121-8-.121-9.4-8.4-9.47-13.766L1731.3-639.4c-.943,12.29-1.494,20.136-1.5,21.628v.079a14.383,14.383,0,0,0,.182,2.348c1.521,9.574,12.293,9.889,13.685,9.889-2.094.005-25.778.095-49.33.121" transform="translate(-1093.473 1437.941)" fill="#ec8432"/>
        <path id="path44" d="M1746.049-552.913c-3.53,0-6.967-.005-10.239-.005h22.039c-3.971,0-7.941.005-11.8.005" transform="translate(-1156.99 1385.526)" fill="#e78b37"/>
        <path id="path46" d="M1411.82-1014.831l-198,80.193-24.262-115.119Z" transform="translate(-792.893 1686.659)" fill="#ed7d2b"/>
        <path id="path48" d="M1011.962-1763.156h444.786l72.165,318.361H1079.056l-67.094-318.361" transform="translate(-674.515 2119.048)" fill="#699dee"/>
        <path id="path50" d="M1925.69-874.513c-1.285-7.81-7.683-14.138-14.294-14.138s-10.924,6.328-9.639,14.138,7.683,14.133,14.294,14.133,10.924-6.329,9.639-14.133" transform="translate(-1267.45 1589.012)" fill="#d86713"/>
        <path id="path52" d="M1544.764-1432.352H1128.311l-47.163-221.934-3.615-17.022-3.086-14.516-7.233-34.038h410.453l7.941,34.038,3.388,14.516,3.971,17.022,51.8,221.934" transform="translate(-711.343 2092.808)" fill="#e4edf9"/>
        <path id="path54" d="M1485.609-1685.824H1074.448l-7.233-34.038h410.453l7.941,34.038" transform="translate(-711.343 2092.808)" fill="#afcdfb"/>
        <path id="path56" d="M1117.914-1687.355c-.5-2.353.715-4.254,2.7-4.254s4,1.9,4.5,4.254-.715,4.254-2.7,4.254-4-1.906-4.5-4.254" transform="translate(-745.062 2075.684)" fill="#e9f3fe"/>
        <path id="path58" d="M1153.807-1687.355c-.5-2.353.714-4.254,2.7-4.254s4,1.9,4.5,4.254-.714,4.254-2.7,4.254-4-1.906-4.5-4.254" transform="translate(-768.987 2075.684)" fill="#e9f3fe"/>
        <path id="path60" d="M1192.458-1687.355c-.5-2.353.714-4.254,2.7-4.254s4,1.9,4.5,4.254-.714,4.254-2.7,4.254-4-1.906-4.5-4.254" transform="translate(-794.749 2075.684)" fill="#e9f3fe"/>
        <path id="path62" d="M1513.76-1374.792H1205.282l-46.945-217.617h304.128l51.295,217.617" transform="translate(-772.081 2015.559)" fill="#cae0ff"/>
        <path id="path64" d="M2178.545-1541.775h-69.915l-12.783-50.635h70.764l11.933,50.635" transform="translate(-1396.971 2015.559)" fill="#d2e3fc"/>
        <path id="path66" d="M1694.94-1549.818h-40.006l-1.645-7.284h40l1.649,7.284" transform="translate(-1101.987 1994.16)" fill="#1c468a"/>
        <path id="path68" d="M1856.781-1549.818h-65.442l-1.65-7.284h65.447l1.645,7.284" transform="translate(-1192.903 1994.16)" fill="#78acea"/>
        <path id="path70" d="M1653.254-1499.987h-70.946l-1.645-7.29h70.946l1.645,7.29" transform="translate(-1053.578 1963.96)" fill="#78acea"/>
        <path id="path72" d="M1850.974-1499.987H1814.2l-1.645-7.29h36.774l1.645,7.29" transform="translate(-1208.145 1963.96)" fill="#f1a34f"/>
        <path id="path74" d="M1731.14-1414.187h-40.006l-1.645-7.29H1729.5l1.645,7.29" transform="translate(-1126.116 1911.957)" fill="#699dee"/>
        <path id="path76" d="M1892.989-1414.187h-65.442l-1.645-7.29h65.442l1.645,7.29" transform="translate(-1217.041 1911.957)" fill="#78acea"/>
        <path id="path78" d="M1689.454-1364.352h-70.942l-1.649-7.284h70.946l1.645,7.284" transform="translate(-1077.707 1881.749)" fill="#fff"/>
        <path id="path80" d="M1887.174-1364.352h-36.769l-1.649-7.284h36.773l1.645,7.284" transform="translate(-1232.274 1881.749)" fill="#fff"/>
        <path id="path82" d="M1431.91-1287.214h-135.34l-1.646-7.29h135.341l1.645,7.29" transform="translate(-863.121 1834.999)" fill="#1c468a"/>
        <path id="path84" d="M1768.393-1287.214h-40.006l-1.645-7.29h40l1.65,7.29" transform="translate(-1150.947 1834.999)" fill="#699dee"/>
        <path id="path86" d="M1930.234-1287.214h-65.442l-1.649-7.29h65.447l1.645,7.29" transform="translate(-1241.863 1834.999)" fill="#78acea"/>
        <path id="path88" d="M1349.875-1237.379h-40l-1.646-7.284h40l1.649,7.284" transform="translate(-871.987 1804.791)" fill="#fff"/>
        <path id="path90" d="M1726.707-1237.379h-70.947l-1.645-7.284h70.946l1.645,7.284" transform="translate(-1102.538 1804.791)" fill="#f1a34f"/>
        <path id="path92" d="M1511.715-1237.379h-65.442l-1.649-7.284h65.446l1.645,7.284" transform="translate(-962.902 1804.791)" fill="#78acea"/>
        <path id="path94" d="M1924.427-1237.379h-36.774l-1.645-7.284h36.774l1.645,7.284" transform="translate(-1257.104 1804.791)" fill="#78acea"/>
        <path id="path96" d="M1477.985-1149.633H1342.646l-1.65-7.285H1476.34l1.645,7.285" transform="translate(-893.831 1751.608)" fill="#1c468a"/>
        <path id="path98" d="M1814.469-1149.633h-40l-1.645-7.285h40l1.645,7.285" transform="translate(-1181.661 1751.608)" fill="#699dee"/>
        <path id="path100" d="M1395.954-1099.793h-40.006l-1.645-7.285h40l1.649,7.285" transform="translate(-902.7 1721.4)" fill="#fff"/>
        <path id="path102" d="M1772.787-1099.793h-70.947l-1.645-7.285h70.942l1.649,7.285" transform="translate(-1133.252 1721.4)" fill="#f1a34f"/>
        <path id="path104" d="M1557.795-1099.793h-65.442l-1.65-7.285h65.446l1.645,7.285" transform="translate(-993.617 1721.4)" fill="#78acea"/>
        <path id="path106" d="M1970.507-1099.793h-36.773l-1.645-7.285h36.774l1.645,7.285" transform="translate(-1287.818 1721.4)" fill="#78acea"/>
        <path id="path108" d="M2176.6-1429.173l-30.767.11-.68-3.3,30.767-.115.68,3.3" transform="translate(-1429.836 1918.624)" fill="#78acea"/>
        <path id="path110" d="M2263.644-1429.325l-11.569.042-.68-3.3,11.569-.042.68,3.3" transform="translate(-1500.649 1918.713)" fill="#78acea"/>
        <path id="path112" d="M2316.22-1429.538l-20.452.074-.68-3.3,20.448-.073.685,3.3" transform="translate(-1529.773 1918.842)" fill="#78acea"/>
        <path id="path114" d="M2167.863-1407.858l-16.869.063-.68-3.3,16.868-.063.68,3.3" transform="translate(-1433.275 1905.702)" fill="#78acea"/>
        <path id="path116" d="M2231.8-1408.085l-21.781.084-.68-3.3,21.781-.079.68,3.3" transform="translate(-1472.619 1905.839)" fill="#78acea"/>
        <path id="path118" d="M2312.359-1408.352l-24.964.095-.68-3.3,24.965-.089.68,3.3" transform="translate(-1524.192 1906.001)" fill="#78acea"/>
        <path id="path120" d="M2187.633-1383.9l-30.767.11-.685-3.3,30.772-.11.68,3.3" transform="translate(-1437.186 1891.18)" fill="#78acea"/>
        <path id="path122" d="M2274.674-1384.053l-11.573.042-.68-3.3,11.569-.042.684,3.3" transform="translate(-1507.999 1891.277)" fill="#78acea"/>
        <path id="path124" d="M2327.255-1384.267l-20.448.074-.68-3.3,20.448-.073.68,3.3" transform="translate(-1537.131 1891.406)" fill="#78acea"/>
        <path id="path126" d="M2178.9-1362.586l-16.868.063-.68-3.3,16.868-.063.68,3.3" transform="translate(-1440.634 1878.266)" fill="#78acea"/>
        <path id="path128" d="M2242.834-1362.813l-21.786.079-.68-3.3,21.786-.079.68,3.3" transform="translate(-1479.969 1878.403)" fill="#78acea"/>
        <path id="path130" d="M2323.391-1363.079l-24.969.089-.681-3.3,24.965-.094.685,3.3" transform="translate(-1531.541 1878.565)" fill="#78acea"/>
        <path id="path132" d="M2140.282-1577.624l-18.527.068-.413-1.991,18.531-.063.409,1.986" transform="translate(-1413.964 2007.801)" fill="#fff"/>
        <path id="path134" d="M2192.7-1577.717l-6.967.026-.409-1.985,6.967-.026.409,1.986" transform="translate(-1456.613 2007.858)" fill="#fff"/>
        <path id="path136" d="M2224.359-1577.846l-12.311.042-.414-1.985,12.316-.048.409,1.991" transform="translate(-1474.147 2007.939)" fill="#fff"/>
        <path id="path138" d="M2135.03-1564.793l-10.16.037-.409-1.99,10.155-.037.414,1.99" transform="translate(-1416.043 2000.027)" fill="#fff"/>
        <path id="path140" d="M2173.524-1564.926l-13.121.047-.408-1.991,13.12-.047.409,1.99" transform="translate(-1439.728 2000.108)" fill="#fff"/>
        <path id="path142" d="M2222.036-1565.086l-15.032.053-.409-1.991,15.032-.052.409,1.99" transform="translate(-1470.788 2000.205)" fill="#fff"/>
        <path id="path144" d="M2146.931-1550.366l-18.527.068-.409-1.99,18.527-.069.409,1.99" transform="translate(-1418.398 1991.283)" fill="#fff"/>
        <path id="path146" d="M2199.344-1550.451l-6.967.026-.409-1.99,6.967-.021.409,1.985" transform="translate(-1461.039 1991.331)" fill="#fff"/>
        <path id="path148" d="M2231.008-1550.585l-12.311.047-.409-1.99,12.312-.042.409,1.985" transform="translate(-1478.583 1991.412)" fill="#fff"/>
        <path id="path150" d="M2141.67-1537.526l-10.159.037-.409-1.991,10.159-.037.409,1.991" transform="translate(-1420.469 1983.501)" fill="#fff"/>
        <path id="path152" d="M2180.173-1537.664l-13.116.047-.409-1.985,13.116-.047.409,1.985" transform="translate(-1444.162 1983.581)" fill="#fff"/>
        <path id="path154" d="M2228.68-1537.825l-15.037.058-.409-1.99,15.032-.052.413,1.985" transform="translate(-1475.214 1983.678)" fill="#fff"/>
        <path id="path156" d="M2206.5-1306.547l-30.767.11-.68-3.3,30.767-.116.68,3.3" transform="translate(-1449.761 1844.301)" fill="#78acea"/>
        <path id="path158" d="M2293.528-1306.7l-11.569.042-.685-3.3,11.573-.042.68,3.3" transform="translate(-1520.566 1844.389)" fill="#78acea"/>
        <path id="path160" d="M2346.109-1306.912l-20.448.074-.68-3.3,20.448-.073.68,3.3" transform="translate(-1549.698 1844.518)" fill="#78acea"/>
        <path id="path162" d="M2197.757-1285.232l-16.868.063-.68-3.3,16.868-.063.68,3.3" transform="translate(-1453.201 1831.379)" fill="#78acea"/>
        <path id="path164" d="M2261.688-1285.459l-21.782.084-.685-3.3,21.786-.079.681,3.3" transform="translate(-1492.535 1831.516)" fill="#78acea"/>
        <path id="path166" d="M2342.244-1285.725l-24.965.094-.685-3.3,24.965-.089.685,3.3" transform="translate(-1544.108 1831.678)" fill="#78acea"/>
        <path id="path168" d="M2224.975-1230.734l-30.767.11-.68-3.3,30.767-.116.68,3.3" transform="translate(-1462.079 1798.35)" fill="#78acea"/>
        <path id="path170" d="M2312.008-1230.885l-11.569.042-.684-3.3,11.573-.042.681,3.3" transform="translate(-1532.884 1798.439)" fill="#78acea"/>
        <path id="path172" d="M2364.589-1231.1l-20.448.073-.68-3.3,20.447-.073.68,3.3" transform="translate(-1562.016 1798.568)" fill="#78acea"/>
        <path id="path174" d="M2216.237-1209.413l-16.868.057-.68-3.3,16.868-.063.681,3.3" transform="translate(-1465.518 1785.428)" fill="#78acea"/>
        <path id="path176" d="M2280.167-1209.64l-21.786.079-.681-3.3,21.786-.079.68,3.3" transform="translate(-1504.853 1785.566)" fill="#78acea"/>
        <path id="path178" d="M2360.724-1209.912l-24.969.095-.68-3.3,24.965-.089.685,3.3" transform="translate(-1556.425 1785.727)" fill="#78acea"/>
        <path id="path180" d="M2241.619-1162.427l-30.771.11-.68-3.3,30.771-.11.68,3.3" transform="translate(-1473.17 1756.95)" fill="#78acea"/>
        <path id="path182" d="M2328.661-1162.579l-11.573.042-.681-3.3,11.569-.042.685,3.3" transform="translate(-1543.983 1757.039)" fill="#78acea"/>
        <path id="path184" d="M2381.242-1162.792l-20.448.073-.68-3.3,20.448-.073.68,3.3" transform="translate(-1573.116 1757.168)" fill="#78acea"/>
        <path id="path186" d="M2232.89-1141.112l-16.869.063-.68-3.3,16.868-.063.681,3.3" transform="translate(-1476.618 1744.028)" fill="#78acea"/>
        <path id="path188" d="M2296.821-1141.339l-21.786.084-.68-3.3,21.786-.079.68,3.3" transform="translate(-1515.953 1744.166)" fill="#78acea"/>
        <path id="path190" d="M2377.373-1141.606l-24.965.094-.68-3.3,24.965-.089.68,3.3" transform="translate(-1567.526 1744.327)" fill="#78acea"/>
        <path id="path192" d="M2319.289-1107.606c-4.042,0-6.371,3.882-5.188,8.656s5.428,8.661,9.47,8.661,6.367-3.886,5.188-8.661S2323.33-1107.606,2319.289-1107.606Zm4.757,19.249c-4.944,0-10.141-4.753-11.586-10.593s1.405-10.593,6.354-10.593,10.141,4.753,11.582,10.593-1.4,10.593-6.349,10.593" transform="translate(-1541.102 1722.895)" fill="#a8d29f"/>
        <path id="path194" d="M2330.065-1083.988a1.736,1.736,0,0,1-1-.494l-5.033-4.759a1.941,1.941,0,0,1-.52-2.279c.391-.614,1.263-.593,1.943.053l3.557,3.361,1.823-4.979c.262-.719,1.076-.877,1.814-.357a2.107,2.107,0,0,1,.863,2.248l-2.4,6.544a.965.965,0,0,1-.849.662,1.245,1.245,0,0,1-.2,0" transform="translate(-1548.589 1713.321)" fill="#a8d29f"/>
        <path id="path196" d="M2393.529-1107.606c-4.042,0-6.371,3.882-5.189,8.656s5.424,8.661,9.466,8.661,6.371-3.886,5.193-8.661S2397.571-1107.606,2393.529-1107.606Zm4.758,19.249c-4.945,0-10.142-4.753-11.587-10.593s1.405-10.593,6.349-10.593,10.142,4.753,11.586,10.593-1.405,10.593-6.348,10.593" transform="translate(-1590.586 1722.895)" fill="#f1a34f"/>
        <path id="path198" d="M2410.022-1089.783h0a1.915,1.915,0,0,1-1.636-1.5l-1.112-4.5c-.2-.824.2-1.5.9-1.5a1.907,1.907,0,0,1,1.636,1.5l1.112,4.5c.2.825-.2,1.5-.9,1.5" transform="translate(-1604.515 1715.46)" fill="#f1a34f"/>
        <path id="path200" d="M2415.092-1073.391h-.275a1.713,1.713,0,0,1-1.463-1.339c-.183-.735.182-1.334.8-1.334h.276a1.707,1.707,0,0,1,1.463,1.334c.182.735-.178,1.339-.8,1.339" transform="translate(-1608.571 1702.603)" fill="#f1a34f"/>
        <path id="path202" d="M2249.514-1504.669c-2.214,0-3.49,2.127-2.845,4.748s2.979,4.743,5.193,4.743,3.49-2.127,2.845-4.743S2251.732-1504.669,2249.514-1504.669Zm2.61,10.552c-2.712,0-5.562-2.605-6.354-5.8s.774-5.809,3.481-5.809,5.562,2.6,6.353,5.809-.769,5.8-3.481,5.8" transform="translate(-1496.763 1963.023)" fill="#a8d29f"/>
        <path id="path204" d="M2255.425-1491.724a.927.927,0,0,1-.551-.273l-2.761-2.6a1.072,1.072,0,0,1-.284-1.25c.218-.342.693-.326,1.067.026l1.947,1.844,1-2.731c.142-.394.591-.478,1-.194a1.154,1.154,0,0,1,.471,1.234l-1.312,3.587a.534.534,0,0,1-.467.362h-.107" transform="translate(-1500.87 1957.777)" fill="#a8d29f"/>
        <path id="path206" d="M2207.326-1504.669c-2.214,0-3.49,2.127-2.845,4.748s2.974,4.743,5.193,4.743,3.49-2.127,2.845-4.743S2209.545-1504.669,2207.326-1504.669Zm2.61,10.552c-2.712,0-5.562-2.605-6.353-5.8s.769-5.809,3.481-5.809,5.562,2.6,6.353,5.809-.769,5.8-3.481,5.8" transform="translate(-1468.644 1963.023)" fill="#a8d29f"/>
        <path id="path208" d="M2213.239-1491.724a.926.926,0,0,1-.551-.273l-2.761-2.6a1.072,1.072,0,0,1-.285-1.25c.218-.342.694-.326,1.067.026l1.948,1.844,1-2.731c.143-.394.592-.478,1-.194a1.153,1.153,0,0,1,.471,1.234l-1.311,3.587a.534.534,0,0,1-.467.362h-.106" transform="translate(-1472.751 1957.777)" fill="#a8d29f"/>
        <path id="path210" d="M2163.634-1504.669c-2.219,0-3.495,2.127-2.846,4.748s2.975,4.743,5.189,4.743,3.494-2.127,2.845-4.743S2165.848-1504.669,2163.634-1504.669Zm2.605,10.552c-2.708,0-5.557-2.605-6.349-5.8s.769-5.809,3.481-5.809,5.558,2.6,6.349,5.809-.77,5.8-3.481,5.8" transform="translate(-1439.521 1963.023)" fill="#a8d29f"/>
        <path id="path212" d="M2169.54-1491.724a.924.924,0,0,1-.556-.273l-2.757-2.6a1.059,1.059,0,0,1-.284-1.25c.213-.342.689-.326,1.063.026l1.952,1.844,1-2.731c.146-.394.591-.478,1-.194a1.157,1.157,0,0,1,.476,1.234l-1.316,3.587a.528.528,0,0,1-.462.362h-.107" transform="translate(-1443.621 1957.777)" fill="#a8d29f"/>
        <path id="path214" d="M2290.22-1504.669c-2.219,0-3.5,2.127-2.846,4.748s2.974,4.743,5.193,4.743,3.49-2.127,2.845-4.743S2292.434-1504.669,2290.22-1504.669Zm2.609,10.552c-2.712,0-5.562-2.605-6.354-5.8s.769-5.809,3.481-5.809,5.562,2.6,6.353,5.809-.773,5.8-3.481,5.8" transform="translate(-1523.896 1963.023)" fill="#f1a34f"/>
        <path id="path216" d="M2299.262-1494.9h0a1.047,1.047,0,0,1-.9-.819l-.614-2.468c-.111-.452.111-.819.493-.819a1.047,1.047,0,0,1,.9.819l.609,2.468c.111.452-.107.819-.489.819" transform="translate(-1531.529 1958.95)" fill="#f1a34f"/>
        <path id="path218" d="M2302.042-1485.918h-.151a.94.94,0,0,1-.8-.73c-.1-.4.1-.735.44-.735h.151a.944.944,0,0,1,.8.735c.1.4-.1.73-.44.73" transform="translate(-1533.757 1951.903)" fill="#f1a34f"/>
        <path id="path220" d="M878.369-1067.811s7.412,2.248,12.123.572,12.82,1.077,14.126,3.1.826,2.836-1.5,3.535-10.585,4.863-16.011,2.453-12.5-2.495-12.5-2.495l3.769-7.169" transform="translate(-582.958 1697.601)" fill="#e49963"/>
        <path id="path222" d="M693.812-1275.9s8.326,69.9,22.112,76.165c6.8,3.088,36.867,10.089,45.76,10.793,0,0,2.179-2.085,1.648-10.583,0,0-31.5-13.661-35.973-21.092-6.66-11.056,4.134-45.162-4.222-55.545s-22.431-14.847-29.325.263" transform="translate(-462.455 1829.639)" fill="#4a75cb"/>
        <path id="path224" d="M700.748-740.446h4.02c2.061,0,3.747-1.991,3.747-4.427V-855.056c0-2.432-1.686-4.422-3.747-4.422h-4.02c-2.061,0-3.747,1.99-3.747,4.422v110.182c0,2.437,1.686,4.427,3.747,4.427" transform="translate(-464.581 1571.331)" fill="#2b478b"/>
        <path id="path226" d="M607.712-561.887c3.724-9.107,18.218-15.9,35.531-15.9s31.807,6.791,35.531,15.9H607.712" transform="translate(-405.066 1400.597)" fill="#2b478b"/>
        <path id="path228" d="M634.095-623.2h52.138a1.1,1.1,0,0,0,1-1.176v-2.442a1.1,1.1,0,0,0-1-1.176H634.095a1.1,1.1,0,0,0-1,1.176v2.442a1.1,1.1,0,0,0,1,1.176" transform="translate(-421.987 1431.031)" fill="#2b478b"/>
        <path id="path230" d="M680.978-950.176a125.281,125.281,0,0,0,8.133,13.75c8.948,13.34,18.689,24.343,20.386,34.747a54.128,54.128,0,0,0,1.573,6.654c.709,2.385,1.584,4.89,2.6,7.479,3.8,9.743,9.476,20.662,15.146,30.582,9.8,17.158,19.018,31.47,19.018,31.47l16.9-.851c-.677-2-8.049-25.688-17.91-54.637-4-11.749-8.263-24.249-12.371-36.3q-.821-2.418-1.637-4.806c-1.256-3.687-2.492-7.316-3.7-10.856-9.26-27.179-16.635-48.823-16.635-48.823s-37.009-16.565-40.853-5.835c-3.169,8.85-.588,17.521,9.352,37.426" transform="translate(-446.815 1651.179)" fill="#163560"/>
        <path id="path232" d="M904.29-587.857s.865,16.476,3.563,16.712c.359.031,13.686.031,13.686.031l17.013-.116a6.284,6.284,0,0,0-5.084-5.867c-4.973-1.024-13.3-5.152-16.309-12.915-3.169-8.167-12.868,2.153-12.868,2.153" transform="translate(-602.747 1409.913)" fill="#163560"/>
        <path id="path234" d="M765.545-699.185s-11.756,8.923-10.615,11.817c.152.389,6.649,14.133,6.649,14.133l8.38,17.489s3.525-2.474,1.857-8.1-2.673-16.224,1.6-23.114c4.492-7.253-7.866-12.221-7.866-12.221" transform="translate(-503.14 1474.177)" fill="#163560"/>
        <path id="path236" d="M725.632-985.944s45.806,33.692,50.991,56.664-61.795,71.974-61.795,71.974-7.346-7.658-8.642-13.272c0,0,30.276-42.846,36.843-52.452,4.034-5.9-59.638-20.42-67.416-34.716s-4.994-26.318-4.994-26.318l55.012-1.88" transform="translate(-446.673 1647.982)" fill="#1c468a"/>
        <path id="path238" d="M564.8-845.128h95.074c1.9,0,3.457-1.838,3.457-4.086v-22.458c0-2.248-1.556-4.086-3.457-4.086H564.8c-1.9,0-3.457,1.838-3.457,4.086v22.458c0,2.248,1.556,4.086,3.457,4.086" transform="translate(-374.157 1581.198)" fill="#ee9849"/>
        <path id="path240" d="M725.225-1334.643a28.7,28.7,0,0,1,7.077,7.573c-11.129,3.4-29.578-8.781-29.578-8.781s7.164-5.683,9.817-18.177q.2-.945.364-1.938a46.463,46.463,0,0,0,.6-6.844l5.112,5.41,8.5,9a101.2,101.2,0,0,1-1.256,10.158q-.277,1.678-.64,3.6" transform="translate(-468.395 1876.399)" fill="#e49963"/>
        <path id="path242" d="M666.788-1239.1c1.594,25.325-.5,63.844,1.305,70.514,1.561,5.756,19.343,2.337,26.441.415,2.627-.709,5.81-1.728,9.1-2.931,9.167-3.351,19.156-8.14,20.228-11.691a3.68,3.68,0,0,0,.1-.41,3.837,3.837,0,0,0-.019-1.491c-.357-1.812-1.734-3.771-1.9-8.256-.181-5.01-.154-10.909-.314-17.253-.008-.714-.016-1.492-.082-2.2l0-.263c0-.137-.006-.268-.008-.4-.154-7.074-.467-14.511-.83-21.885-.231-4.632-.5-9.223-.805-13.613-.8-11.349-1.877-21.439-3.3-27.815a45.916,45.916,0,0,0-12.146-22.147l-3.383-3.43a16.876,16.876,0,0,1-12.276-1.933c-4.369-2.447-5.878-4.207-6.639-3.545-10.091,9.2-17.348,37.378-15.466,68.339" transform="translate(-444.244 1842.925)" fill="#739af0"/>
        <path id="path244" d="M744.519-1054.233c9.167-3.351,19.156-8.141,20.228-11.691a3.672,3.672,0,0,0,.1-.41c-.006-.5-.011-.993-.019-1.492-.358-1.812-1.734-3.771-1.9-8.256-.181-5.011-.154-10.909-.314-17.253-.008-.714-.016-1.491-.082-2.2l0-.262c0-.137-.006-.268-.008-.4L727.9-1114.757s-2,32.972,16.623,60.524" transform="translate(-485.132 1726.055)" fill="#4a75cb"/>
        <path id="path246" d="M745.72-1340.08a101.2,101.2,0,0,1-1.256,10.157c-8.3-3.167-12.067-12.027-13.324-15.782-.358-1.061-.513-1.718-.513-1.718s.321-.084.877-.221c1.167-.294,3.364-.846,5.715-1.434l8.5,9" transform="translate(-486.994 1868.076)" fill="#d68d5d"/>
        <path id="path248" d="M744.872-1381.593s-18.238,2.426-19.343-11.014-4.205-22.174,7.392-24.3,14.285,2.752,15.578,7.127,1.089,27.2-3.626,28.182" transform="translate(-482.785 1909.494)" fill="#e49963"/>
        <path id="path250" d="M716.041-1404.945s1.156-17.841,17.757-19.685c11.371-1.266,5.031-12.83,3.819-14.674,0,0-8.712,1.413-17.642,3.156-18.743,3.656-5.775,28.424-3.935,31.2" transform="translate(-473.219 1922.761)" fill="#2b478b"/>
        <path id="path252" d="M992.927-1099.324l1.6.615,13.582-49.38-1.6-.614-13.582,49.38" transform="translate(-661.828 1746.63)" fill="#4a75cb"/>
        <path id="path254" d="M859.489-1033.011l46.112,1.161-.059,3.261-46.112-1.166.059-3.256" transform="translate(-572.846 1676.509)" fill="#4a75cb"/>
        <path id="path256" d="M865.64-1040.531s7.156,3.2,12,2.148,12.641,2.736,13.75,4.926.557,2.925-1.825,3.319-10.974,3.45-16.142.352-12.193-4.107-12.193-4.107l4.415-6.639" transform="translate(-574.042 1681.067)" fill="#e49963"/>
        <path id="path258" d="M704.832-1266.132s1.751,70.561,14.869,78.581c6.473,3.955,35.7,14.832,44.473,16.686,0,0,2.36-1.791,2.625-10.3,0,0-30.031-17.678-33.785-25.646-5.587-11.854,8.324-44.353.988-55.76s-20.908-17.678-29.17-3.556" transform="translate(-469.8 1822.735)" fill="#739af0"/>
        <path id="path260" d="M2199.381-561.258s.671-6.166,2.223-9.832,11.422-1.329,11.422-1.329,1.974,2,2.4,11.323l-16.042-.163" transform="translate(-1465.98 1397.788)" fill="#233862"/>
        <path id="path262" d="M2035.762-573.16c2.321-1.675,1-14.149,1-14.149s-10.809-10.21-12.294-2.4-10.266,11.334-15.263,12.29a5.68,5.68,0,0,0-4.851,4.254h31.407" transform="translate(-1335.987 1409.606)" fill="#233862"/>
        <path id="path264" d="M2092.081-920.007c-.44,2.862-.72,5.21-.8,6.9-1,23.146-16.495,76.07-19.265,77.3-4.286,1.912-11.035-2.153-14.57-3.482a3.663,3.663,0,0,1-2.125-4.065c7.669-41.654,10.493-101.642,11.515-137.151a189.19,189.19,0,0,1,3.117-30.246s37.783-11.906,38.005,3.156c.2,13.324-12.516,65.6-15.881,87.588" transform="translate(-1369.919 1665.725)" fill="#213f7a"/>
        <path id="path266" d="M2115.222-920.007l-25.24-60.5a189.17,189.17,0,0,1,3.117-30.246s37.783-11.906,38.005,3.156c.2,13.324-12.516,65.6-15.882,87.588" transform="translate(-1393.061 1665.725)" fill="#233862"/>
        <path id="path268" d="M2140.461-1004.1l19.971,170.984s8.772,2.5,15.593.5c0,0,5.847-90.938,5.362-112.923s4.193-58.828-1.072-62.888-39.854,4.328-39.854,4.328" transform="translate(-1426.708 1662.283)" fill="#213f7a"/>
        <path id="path270" d="M2151.712-1205.049l2.49,41.05a3.294,3.294,0,0,1-2,3.383c-2.788.956-6,1.623-12.2,3.135a100.663,100.663,0,0,1-23.262,2.762c-15.3.115-21.092-6.113-21.092-6.113-.658.016.346-3.766,1.254-21.749.311-6.093.6-13.818.818-23.576.2-8.781.325-19.212.338-31.586.018-14.89,19.523-30.908,19.883-30.908l0,.011c0,2.143,2.859,6.1,7.265,6.439,5.229.4,11.644-2.668,11.644-6.224,0-.037,9.448,17.857,12.8,36.927.427,2.416.76,4.968,1.022,7.652l.009.121c.049.488.093.982.138,1.481.009.089.014.173.022.263.04.452.08.909.111,1.365.013.131.017.268.031.394.031.42.062.84.089,1.266l.009.116c.022.315.04.63.063.951.013.22.027.451.04.677.022.373.044.74.066,1.119.009.189.022.373.031.562.018.357.036.714.053,1.077.009.163.018.32.027.483.022.52.049,1.045.071,1.57l0,.126c.022.509.044,1.019.062,1.534.009.131.013.252.018.383.018.483.035.966.053,1.455,0,.074,0,.147.009.221q.06,1.788.12,3.634l0,.095,0-.095" transform="translate(-1396.699 1819.329)" fill="#2b478b"/>
        <path id="path272" d="M2097.257-1268.638s-18.14-.184-22.506,7.048-13.934,46.139-8.941,59.085,14.343-5.352,19.527-13.282,11.92-52.851,11.92-52.851" transform="translate(-1376.011 1819.322)" fill="#2b478b"/>
        <path id="path274" d="M2162.275-1296.605l.009,2.216s-.511,6.927,6.709,7.936,12.693-2.7,12.5-8.046c-.653-4.139-1.365-6.98-1.413-10.4a28.278,28.278,0,0,1,.258-4.149l-14-.331-4.117.8.054,11.98" transform="translate(-1441.212 1844.018)" fill="#ffb27d"/>
        <path id="path276" d="M2162.221-1308.585l.053,11.98a10.356,10.356,0,0,0,5.042,1.313c6.429,0,10.586-5.567,12.76-9.611a28.484,28.484,0,0,1,.258-4.149l-14-.331-4.117.8" transform="translate(-1441.212 1844.018)" fill="#e2915a"/>
        <path id="path278" d="M2173.582-1355.294c-1.623,10.32-12.9,9.979-17.771,9.333-1.37-.184-2.232-.389-2.232-.389-1.547-.488-2.41-3.367-2.81-7.132-.8-7.458.209-18.4,1.276-21.2,1.6-4.212,4.628-8.771,15.979-5.483s7.638,11.649,5.557,24.873" transform="translate(-1433.387 1887.601)" fill="#ffb27d"/>
        <path id="path280" d="M2093.678-1195.024s-7.016,18.3-6.812,23.786a20.653,20.653,0,0,1,6.812,1.035c5.487,1.933,0-24.821,0-24.821" transform="translate(-1390.981 1774.704)" fill="#233862"/>
        <path id="path282" d="M2144.488-1396.352a32.889,32.889,0,0,0,10.893-3.482c4.784-2.453,10.822.252,12.778,1.471a3.846,3.846,0,0,0-.476-1.392,3.118,3.118,0,0,1,1.009,1.765c.089.079.129.136.107.152a2.863,2.863,0,0,1,1.636.126s-.449-.079-.609.263l-.071.094c7.465,4.26,8.154,18.193,5.753,21.418-2.89,3.876-6.353,12.61-6.353,12.61a8.541,8.541,0,0,1-.738-5.473c.524-3.414-1.974-3.414-5.126-4.969s-.525-5.892-3.281-8.529-12.871-1.087-12.738-3.1c-3.757-1.618-2.783-10.493-2.783-10.951" transform="translate(-1429.316 1899.443)" fill="#233862"/>
        <path id="path284" d="M2142.108-1109.21c-2.961,14.049-34.991,21.313-42.273,22.789.311-6.093.6-13.818.818-23.576l41.455.788" transform="translate(-1399.628 1723.17)" fill="#233862"/>
        <path id="path286" d="M2201.564-1119.181c.3,0,7.118-1.2,8.341-1.922s6.8-10.094,3.147-12.5-13.471,7.211-13.471,7.211l1.983,7.211" transform="translate(-1466.114 1737.711)" fill="#ffb27d"/>
        <path id="path288" d="M2080.728-1115.21s26.356,1.691,44.047-2.783c0,0,.444-6.04-5.113-8.719,0,0-27.57-6.9-34.2-4.979s-4.739,16.481-4.739,16.481" transform="translate(-1386.729 1736.524)" fill="#2b478b"/>
        <path id="path290" d="M2217.743-1222.1c-5.468,7.789-12.618,14.149-20.5,15.641l0,0a19.754,19.754,0,0,1-1.952-10.394,23.484,23.484,0,0,1,2.873-9.548,22.974,22.974,0,0,0,1.552-3.693c4.3-12.972,3.663-37.977,3.663-37.977s18.278,2.258,23.974,11.87c3.49,5.887-.96,21.785-9.6,34.106" transform="translate(-1463.214 1818.982)" fill="#2b478b"/>
        <path id="path292" d="M2156.383-1303.169c-1.369-.184-2.232-.389-2.232-.389-1.547-.489-2.41-3.367-2.81-7.132,2.9.845,4.229,3.487,4.78,4.616a7.768,7.768,0,0,1,.262,2.9" transform="translate(-1433.96 1844.809)" fill="#e2915a"/>
        <path id="path294" d="M2137.834-1296.619s-6.318-12.305-1.405-12.841,6.883,3.393,7.59,4.832-.182,7.946-.182,7.946l-6,.063" transform="translate(-1422.773 1844.095)" fill="#ffb27d"/>
        <path id="path296" d="M2165.633-1225.921a18.547,18.547,0,0,1-1.076,4.27,20.494,20.494,0,0,1-4.02,6.544l0-.005c-16.4-8.739-19.714-38.76-20.269-55.257-.223-6.633,0-11.076,0-11.076,7.4-2.894,9.474,2.132,9.474,2.132s8.737,24.532,13.267,40.566c1.73,6.134,2.85,11.029,2.628,12.825" transform="translate(-1426.51 1827.629)" fill="#2b478b"/>
        <path id="path298" d="M2181.237-1212.322c-5.469,7.789-12.618,14.149-20.5,15.641l0-.005c-16.4-8.739-19.714-38.76-20.27-55.256,0,0,7.759,33.24,18.318,44.863,1.907,2.1,3.913,3.493,5.976,3.855,0,0,13.316-4.443,16.108-8.629.2-.3.32-.452.373-.468" transform="translate(-1426.708 1809.203)" fill="#233862"/>
        <path id="path300" d="M1444.23-540.435H314.446a1.42,1.42,0,0,1-1.283-1.518v-.515a1.419,1.419,0,0,1,1.283-1.518H1444.23a1.42,1.42,0,0,1,1.285,1.518v.515a1.42,1.42,0,0,1-1.285,1.518" transform="translate(-208.736 1380.111)" fill="#2e3552"/>
        <path id="path302" d="M3071.836-884.518c3.2,14.117,26.823,22.426,52.665,27.3h96.44c23.245-13.445,23.213-29.479,25.08-73.754,3.85-91.448-36.872-135.6-55.033-128.312-.757.3-1.525.63-2.308,1.008-5.277,2.51-11.187,6.938-16.939,17.479,0,0-18.047,35.535-32.9,56.732-4.784,6.828-9.234,12.169-12.64,14.354a.625.625,0,0,1-.125.073c-.178.116-.356.215-.534.31-7.87,4.259-18.962,13.177-29.1,24.432h0c-15.713,17.447-29.113,40.477-24.6,60.377" transform="translate(-2046.918 1692.902)" fill="#f99746"/>
        <path id="path304" d="M3147.406-925.827c13.521,4.905,83.115,28.639,99.495,3.477,11.858-18.224,4.473-64.91-2.076-95.114-2.686-12.384-16.086-15.194-21.951-4.58l-.173.315s-18.046,35.535-32.9,56.732c-4.3,6.7-8.537,11.859-12.64,14.354a.636.636,0,0,1-.125.073,6.093,6.093,0,0,1-.533.31c-7.87,4.259-18.963,13.177-29.1,24.432" transform="translate(-2097.879 1673.835)" fill="#ed7d2b"/>
        <path id="path306" d="M3225.824-1060.571s-4.82,8.435-7.571,26.155c-2.41,15.52-4.522,21.25-8,24.432s-22.862,12.578-22.862,12.578l1.45,4.012s28.41-4.569,31.6-10.178,15.356-38.749,14.414-46.38-9.03-10.62-9.03-10.62" transform="translate(-2124.531 1693.213)" fill="#f4a269"/>
        <path id="path308" d="M3041.324-626.259c.258,3.272-3.6,4.065-8.07,4.328s-3.116,1.345-9.239,2.658-8.576-.672-9.017-1.649c-.4-.866,2.45-2.222,5.482-3.755.383-.189.765-.389,1.147-.588,3.415-1.77,5.331-5.388,7.995-8.739,2.521-3.177,4.913-13.351,4.913-13.351l8.319-2.1s-2.334,9.154-3.144,13.062c-.48,2.3.227,4.869.85,6.822a14.682,14.682,0,0,1,.764,3.309" transform="translate(-2009.599 1444.034)" fill="#ffb27d"/>
        <path id="path310" d="M3033.254-591.335c-4.464.263-3.116,1.344-9.239,2.658s-8.576-.672-9.017-1.649c-.4-.866,2.45-2.222,5.482-3.755l.049.063a14.926,14.926,0,0,0,9.275.131c4.05-1.3,7.967-4.16,10.754-5.084a14.628,14.628,0,0,1,.765,3.309c.258,3.272-3.6,4.065-8.07,4.328" transform="translate(-2009.599 1413.439)" fill="#c65447"/>
        <path id="path312" d="M3157-897.781s-55.287-4.916-65.7,2.847-27.1,98.139-27.1,98.139a6.165,6.165,0,0,0,3.33,1.271c2.138.273,6.852-1.213,6.852-1.213s23.99-40.441,25.68-50.63,1.276-19.275,5.126-19.522S3157-860,3164.261-875.1s1.259-30.047,1.259-30.047L3157-897.781" transform="translate(-2042.422 1599.009)" fill="#163560"/>
        <path id="path314" d="M3104.764-599.632c.258,3.272-3.6,4.07-8.065,4.333s-3.121,1.339-9.243,2.652-8.576-.672-9.017-1.649c-.4-.867,2.45-2.222,5.481-3.755.383-.189.765-.389,1.147-.583,3.415-1.775,5.331-5.394,7.994-8.745,2.521-3.177,4.912-13.345,4.912-13.345l8.323-2.1s-2.339,9.154-3.148,13.062c-.48,2.3.227,4.869.849,6.822a14.46,14.46,0,0,1,.764,3.309" transform="translate(-2051.884 1427.896)" fill="#ffb27d"/>
        <path id="path316" d="M3096.7-564.7c-4.468.263-3.121,1.339-9.243,2.652s-8.576-.672-9.017-1.649c-.4-.867,2.45-2.222,5.481-3.755l.05.063a14.88,14.88,0,0,0,9.274.131c4.05-1.3,7.968-4.16,10.756-5.084a14.46,14.46,0,0,1,.764,3.309c.258,3.272-3.6,4.07-8.065,4.333" transform="translate(-2051.884 1397.3)" fill="#c65447"/>
        <path id="path318" d="M3208.841-876.171s-49.112,2.747-59.258,10.977-23.845,99.316-23.845,99.316a6.131,6.131,0,0,0,3.37,1.113c2.148.179,6.807-1.528,6.807-1.528s22.639-41.512,23.991-51.769.641-19.322,4.478-19.742,52,4.5,58.755-10.919-14.3-27.447-14.3-27.447" transform="translate(-2083.437 1581.448)" fill="#1c468a"/>
        <path id="path320" d="M3312.087-1155.4c-.951-1.98-2.089-5.531-2.912-11.954.107.635,1.507,8.708,4.424,13.114,11.373,7.594,33.857,34.175,33.746,39.553,0,0,6.527-15.32,6.647-15.42,0,0,12.422-21.454-4.322-31.869-8.51-5.289-8.9-12.915-8.932-19.558s-4.21-34.926-20.167-26.181c0,0-2.708-1.177-3.872-.877a2.908,2.908,0,0,1,1.494.7,11.22,11.22,0,0,0-6.789,2.1c-5.776,4.5-9.11,41.081.684,50.393" transform="translate(-2203.498 1783.404)" fill="#b5453c"/>
        <path id="path322" d="M3341.69-1085.563a46.731,46.731,0,0,0-9.15,0,25.733,25.733,0,0,0-7.936,2.353c-4.33,2.132-3.876,11.187,5.206,9.511s12.516-9.181,11.88-11.864" transform="translate(-2214.218 1708.499)" fill="#ffb27d"/>
        <path id="path324" d="M3330.41-1099.41c-.053.032-1.294,7.784,4.65,7.474,3.9-.2,12.325-5.782,11.582-9.732-.351-1.875-3.3-6.744-3.9-17.862l-.707.226-11.951,3.787s.529,4.48.778,8.719c.209,3.561.218,6.953-.453,7.39" transform="translate(-2219.642 1728.948)" fill="#ffb27d"/>
        <path id="path326" d="M3330.085-1115.171s.529,4.48.778,8.718c6.763-.756,9.932-8.34,11.173-12.505l-11.951,3.787" transform="translate(-2219.642 1728.601)" fill="#f4a269"/>
        <path id="path328" d="M3325.571-1167.585s3.179-6.911,3.708-12.642c.383-4.1-2.209-18.96-14.845-15.793a16.107,16.107,0,0,0-7.007,3.776c-2.645,2.426-6.376,7.516-1.165,20.252l1.409,4.328,17.9.079" transform="translate(-2202.017 1775.574)" fill="#b5453c"/>
        <path id="path330" d="M3310.813-1148.72s16.051-.951,15.4-12.747.974-19.863-9.3-19.758-12.013,4.763-12.605,8.766,2.317,23.686,6.509,23.739" transform="translate(-2202.407 1766.342)" fill="#ffb27d"/>
        <path id="path332" d="M3320.312-1184.694s5.171,13.492,12.022,15.01,9.657-.851,9.657-.851a22.863,22.863,0,0,1-6.994-12.82s-11.747-8.188-14.685-1.339" transform="translate(-2213.128 1770.099)" fill="#b5453c"/>
        <path id="path334" d="M3308.272-1181s-3.1,3.351-3.734,6.418-.641,9.275-2.179,9.186c0,0-3.837-9.144-.422-14.758,3.623-5.956,6.335-.845,6.335-.845" transform="translate(-2199.936 1767.443)" fill="#b5453c"/>
        <path id="path336" d="M3275.2-1005.932c1.3,1.833,5.354,2.395,9.688,3.24,3.41.662,6.994,1.5,9.541,3.267,5.784,4.013,24.689,17.573,30.229,16.959,2.147-.242,1.747-5.084.445-11.512-2.046-10.147-6.332-24.243-6.332-30.372,0-3.346-.943-11.261-2.2-20.31-.1-.73-.209-1.465-.311-2.211-2.49-17.594-5.936-38.34-5.936-38.34s-3.846,9.905-11.337,9.905-5.749-7.552-5.749-7.552-6.834.951-8.448,3-5.713,10.935-6.527,13.356c0,0-.165,3.083,6.3,4.548a117.037,117.037,0,0,0-1.761,13.944c-.138,4.118,2.383,17.011,3.1,25.031.258,2.841.294,5.073-.1,6.082-.5,1.3-2.116,2.584-3.957,3.85-3.65,2.516-8.189,4.932-6.647,7.111" transform="translate(-2182.852 1708.147)" fill="#1c468a"/>
        <path id="path338" d="M3294.344-962.284c-4.143,8.351,11.244,10.861,13.792,12.631,5.789,4.012,23.48,18.56,29.02,17.946,2.148-.242,1.748-5.084.445-11.512-2.045-10.147-6.331-24.243-6.331-30.372,0-3.346-.943-11.26-2.2-20.31l-6.669-7.563s-7.149,21.817-13.961,25.388a51.065,51.065,0,0,1-10.039,3.86c.258,2.841.293,5.073-.1,6.082-.5,1.3-2.116,2.584-3.957,3.85" transform="translate(-2195.35 1657.389)" fill="#163560"/>
        <path id="path340" d="M3315.019-1070.3s5.7-4.091,11.213,3.671-3.917,63.229-12.089,66.075c-9.07,3.167-35.284-.5-35.284-.5l.507-4.842s27.9-6.318,29.064-8.078,3.69-55.425,6.589-56.323" transform="translate(-2185.498 1699.76)" fill="#ffb27d"/>
        <path id="path342" d="M3374.691-1085.211s11.707,1.245,15.108,5.8,4.4,16.875,4.4,16.875-10.315,9.837-22.738,6.019l3.232-28.692" transform="translate(-2247.219 1708.147)" fill="#1c468a"/>
        <path id="path344" d="M3224.259-884.119h15.468v-2.158h-15.468v2.158" transform="translate(-2149.104 1587.574)" fill="#9e332e"/>
        <path id="path346" d="M3143.125-922.792c-.151-.714-14.219-26.806-14.219-26.806h-31.3l15.7,26.108,29.82.7" transform="translate(-2064.685 1625.952)" fill="#9e332e"/>
        <path id="path348" d="M3141.809-922.5c-.151-.714-14.263-27.1-14.263-27.1h-29.94l14.939,27.1h29.264" transform="translate(-2064.685 1625.952)" fill="#b5453c"/>
        <path id="path350" d="M3150.833-917.921a2.585,2.585,0,0,0,2.179,1.912c.894,0,1.369-.856,1.063-1.912a2.584,2.584,0,0,0-2.178-1.917c-.893,0-1.369.856-1.063,1.917" transform="translate(-2100.101 1607.915)" fill="#9e332e"/>
        <path id="path352" d="M3254.6-908.393s-9.088-2.08-10.115-1.56-6.74,6.575-6.154,7.789,2.93,2.08,5.567,1.04,8.354-1.56,9.381-3.114a11.429,11.429,0,0,0,1.321-4.155" transform="translate(-2158.458 1601.974)" fill="#ffb27d"/>
        <path id="path354" d="M2090.981-1799.958h-285.9l-21.91-84.757h285.9l21.91,84.757" transform="translate(-1188.557 2192.725)" fill="#fafdff"/>
        <path id="path356" d="M2106.387-1824.433l2.623,10.136c1.152,4.459-.991,8.109-4.771,8.109H1867.379c-3.775,0-7.812-3.651-8.963-8.109l-2.619-10.136c-1.156-4.459.992-8.109,4.767-8.109h236.865c3.775,0,7.807,3.65,8.959,8.109" transform="translate(-1236.758 2161.103)" fill="#b7d5f9"/>
        <path id="path358" d="M2457.729-1808.611H2454.1l-.343-1.318h5.082l.293,1.135-1.351,7.4h-1.423l1.374-7.221" transform="translate(-1635.53 2147.397)" fill="#699dee"/>
        <path id="path360" d="M2479.522-1805.886c-.436-1.68-1.526-3.062-2.641-3.062s-1.48,1.344-1.036,3.062c.436,1.686,1.516,3.062,2.641,3.062S2479.962-1804.179,2479.522-1805.886Zm-4.989,0c-.627-2.437.12-4.417,2.019-4.417s3.645,1.954,4.281,4.417c.631,2.443-.12,4.417-2.019,4.417s-3.641-1.954-4.281-4.417" transform="translate(-1649.236 2147.624)" fill="#699dee"/>
        <path id="path362" d="M2503.221-1803.62c-.174-.682-.65-1.245-1.116-1.245-.485,0-.627.562-.454,1.245s.654,1.245,1.12,1.245C2503.256-1802.375,2503.4-1802.937,2503.221-1803.62Zm-2.486,0c-.307-1.187.124-2.185,1.147-2.185a2.676,2.676,0,0,1,2.259,2.185c.307,1.182-.129,2.18-1.147,2.18A2.676,2.676,0,0,1,2500.736-1803.62Zm-3.01-4.369c-.178-.683-.649-1.24-1.116-1.24-.485,0-.627.557-.453,1.24.182.7.653,1.245,1.116,1.245C2497.761-1806.745,2497.9-1807.307,2497.726-1807.989Zm2.992-2.085h1.022l-3.081,8.54h-1.023Zm-5.478,2.085c-.307-1.182.125-2.179,1.147-2.179a2.68,2.68,0,0,1,2.258,2.179c.307,1.187-.129,2.185-1.151,2.185a2.676,2.676,0,0,1-2.254-2.185" transform="translate(-1663.118 2147.543)" fill="#699dee"/>
        <path id="path364" d="M2020.729-1832.542l6.811,26.355H1867.379c-3.148,0-6.469-2.531-8.154-5.951a11.091,11.091,0,0,1-.809-2.158l-2.619-10.136c-1.156-4.459.992-8.109,4.767-8.109h160.166" transform="translate(-1236.758 2161.103)" fill="#f99746"/>
        <path id="path366" d="M1896.389-1832.542l-6.749,26.355h-14.783c-3.148,0-6.469-2.531-8.154-5.951l5.224-20.4h24.462" transform="translate(-1244.236 2161.103)" fill="#ed7d2b"/>
        <path id="path368" d="M2019.047-1832.542l-6.754,26.355h-24.458l6.754-26.355h24.458" transform="translate(-1324.976 2161.103)" fill="#ed7d2b"/>
        <path id="path370" d="M2144.744-1832.542,2138-1806.187h-24.467l6.754-26.355h24.462" transform="translate(-1408.755 2161.103)" fill="#ed7d2b"/>
        <path id="path372" d="M2270.464-1832.542l-6.753,26.355h-24.463l6.749-26.355h24.467" transform="translate(-1492.553 2161.103)" fill="#ed7d2b"/>
        <path id="path374" d="M1934.114-1731.354h-42.776l-.9-3.482h42.78l.9,3.482" transform="translate(-1260.055 2101.883)" fill="#afcdfb"/>
        <path id="path376" d="M1929.981-1706.607H1898.9l-.9-3.482h31.083l.9,3.482" transform="translate(-1265.094 2086.885)" fill="#afcdfb"/>
        <path id="path378" d="M2016.438-1706.607h-18.58l-.9-3.482h18.58l.9,3.482" transform="translate(-1331.055 2086.885)" fill="#afcdfb"/>
        <path id="path380" d="M2091.6-1706.607h-28.384l-.9-3.482h28.379l.9,3.482" transform="translate(-1374.62 2086.885)" fill="#afcdfb"/>
        <path id="path382" d="M2042.223-1731.354h-12.951l-.9-3.482h12.956l.9,3.482" transform="translate(-1351.993 2101.883)" fill="#afcdfb"/>
        <path id="path384" d="M2128.5-1731.354h-47.1l-.9-3.482h47.1l.9,3.482" transform="translate(-1386.742 2101.883)" fill="#afcdfb"/>
        <path id="path386" d="M1084.471-1530.855H883.347l-31.262-120.928H1053.21l31.26,120.928" transform="translate(-567.95 2051.545)" fill="#fafdff"/>
        <path id="path388" d="M1086.271-1577.373H910.656l-13.286-51.4h175.612l13.289,51.4" transform="translate(-598.135 2037.597)" fill="#4a75cb"/>
        <path id="path390" d="M962.929-1606.468H933.182l-.709-2.741H962.22l.709,2.741" transform="translate(-621.532 2025.742)" fill="#cae0ff"/>
        <path id="path392" d="M1068.359-1606.468h-24.741l-.709-2.741h24.741l.709,2.741" transform="translate(-695.143 2025.742)" fill="#cae0ff"/>
        <path id="path394" d="M1188.28-1606.468h-51.136l-.709-2.741h51.136l.709,2.741" transform="translate(-757.481 2025.742)" fill="#cae0ff"/>
        <path id="path396" d="M970.545-1581.521H940.8l-.709-2.742h29.748l.709,2.742" transform="translate(-626.608 2010.622)" fill="#cae0ff"/>
        <path id="path398" d="M1075.975-1581.521h-24.741l-.709-2.742h24.741l.709,2.742" transform="translate(-700.219 2010.622)" fill="#cae0ff"/>
        <path id="path400" d="M1163.6-1581.521h-24.741l-.709-2.742h24.741l.709,2.742" transform="translate(-758.624 2010.622)" fill="#cae0ff"/>
        <path id="path402" d="M1286.662-1578.628h-51.134l-.709-2.741h51.136l.707,2.741" transform="translate(-823.059 2008.868)" fill="#cae0ff"/>
        <path id="path404" d="M980.2-1549.908H950.453l-.708-2.742h29.748l.709,2.742" transform="translate(-633.045 1991.461)" fill="#cae0ff"/>
        <path id="path406" d="M1085.63-1549.908h-24.741l-.709-2.742h24.741l.708,2.742" transform="translate(-706.655 1991.461)" fill="#cae0ff"/>
        <path id="path408" d="M1205.551-1549.908h-51.136l-.708-2.742h51.136l.709,2.742" transform="translate(-768.994 1991.461)" fill="#cae0ff"/>
        <path id="path410" d="M987.817-1524.961H958.069l-.709-2.742h29.748l.709,2.742" transform="translate(-638.121 1976.34)" fill="#cae0ff"/>
        <path id="path412" d="M1093.246-1524.961h-24.741l-.708-2.742h24.741l.708,2.742" transform="translate(-711.732 1976.34)" fill="#cae0ff"/>
        <path id="path414" d="M1180.871-1524.961H1156.13l-.709-2.742h24.741l.709,2.742" transform="translate(-770.137 1976.34)" fill="#cae0ff"/>
        <path id="path416" d="M1303.937-1522.068H1252.8l-.709-2.741h51.134l.711,2.741" transform="translate(-834.572 1974.587)" fill="#cae0ff"/>
        <path id="path418" d="M1250.1-1461.675c-5.572,0-8.721,5.357-7.019,11.938s7.618,11.938,13.19,11.938,8.72-5.357,7.019-11.938S1255.677-1461.675,1250.1-1461.675Zm6.861,26.539c-6.816,0-14.056-6.549-16.138-14.6s1.771-14.606,8.587-14.606,14.056,6.554,16.138,14.606-1.771,14.6-8.587,14.6" transform="translate(-826.688 1937.938)" fill="#a8d29f"/>
        <path id="path420" d="M1265.231-1429.112a2.41,2.41,0,0,1-1.395-.677l-7.011-6.565a2.686,2.686,0,0,1-.753-3.141c.531-.845,1.729-.819,2.678.068l4.953,4.638,2.435-6.859c.353-.993,1.472-1.213,2.5-.5a2.932,2.932,0,0,1,1.222,3.1l-3.2,9.023a1.311,1.311,0,0,1-1.16.909,1.162,1.162,0,0,1-.269,0" transform="translate(-837.057 1924.74)" fill="#a8d29f"/>
        <path id="path422" d="M1144.028-1461.675c-5.572,0-8.72,5.357-7.019,11.938s7.619,11.938,13.19,11.938,8.721-5.357,7.019-11.938S1149.6-1461.675,1144.028-1461.675Zm6.861,26.539c-6.816,0-14.055-6.549-16.137-14.6s1.771-14.606,8.587-14.606,14.055,6.554,16.137,14.606-1.771,14.6-8.587,14.6" transform="translate(-755.983 1937.938)" fill="#a8d29f"/>
        <path id="path424" d="M1159.154-1429.112a2.41,2.41,0,0,1-1.395-.677l-7.011-6.565a2.686,2.686,0,0,1-.753-3.141c.531-.845,1.73-.819,2.678.068l4.954,4.638,2.435-6.859c.353-.993,1.472-1.213,2.5-.5a2.932,2.932,0,0,1,1.222,3.1l-3.2,9.023a1.311,1.311,0,0,1-1.16.909,1.167,1.167,0,0,1-.269,0" transform="translate(-766.353 1924.74)" fill="#a8d29f"/>
        <path id="path426" d="M1034.152-1461.675c-5.572,0-8.721,5.357-7.019,11.938s7.619,11.938,13.19,11.938,8.721-5.357,7.019-11.938S1039.724-1461.675,1034.152-1461.675Zm6.86,26.539c-6.816,0-14.055-6.549-16.137-14.6s1.771-14.606,8.587-14.606,14.056,6.554,16.137,14.606-1.77,14.6-8.587,14.6" transform="translate(-682.746 1937.938)" fill="#a8d29f"/>
        <path id="path428" d="M1049.277-1429.112a2.411,2.411,0,0,1-1.394-.677l-7.01-6.565a2.684,2.684,0,0,1-.753-3.141c.531-.845,1.729-.819,2.678.068l4.953,4.638,2.435-6.859c.353-.993,1.472-1.213,2.5-.5a2.933,2.933,0,0,1,1.222,3.1l-3.2,9.023a1.31,1.31,0,0,1-1.159.909,1.168,1.168,0,0,1-.269,0" transform="translate(-693.115 1924.74)" fill="#a8d29f"/>
        <path id="path430" d="M1352.446-1461.675c-5.571,0-8.719,5.357-7.021,11.938s7.62,11.938,13.192,11.938,8.719-5.357,7.021-11.938S1358.017-1461.675,1352.446-1461.675Zm6.86,26.539c-6.816,0-14.054-6.549-16.135-14.6s1.769-14.606,8.585-14.606,14.054,6.554,16.135,14.606-1.77,14.6-8.585,14.6" transform="translate(-894.903 1937.938)" fill="#f1a34f"/>
        <path id="path432" d="M1375.3-1437.1h0a2.681,2.681,0,0,1-2.281-2.064l-1.605-6.208c-.293-1.135.254-2.064,1.214-2.064a2.68,2.68,0,0,1,2.281,2.064l1.605,6.208c.293,1.134-.253,2.064-1.214,2.064" transform="translate(-914.051 1927.691)" fill="#f1a34f"/>
        <path id="path434" d="M1382.6-1414.51h-.378a2.392,2.392,0,0,1-2.036-1.843c-.262-1.014.222-1.843,1.08-1.843h.378a2.392,2.392,0,0,1,2.036,1.843c.262,1.014-.227,1.843-1.08,1.843" transform="translate(-919.906 1909.969)" fill="#f1a34f"/>
        <path id="path436" d="M2834.033-1405.917s25.44,31.155,26.641,42.883S2848.487-1333,2848.487-1333l-14.454-72.913" transform="translate(-1889.002 1902.526)" fill="#ed7d2b"/>
        <path id="path438" d="M2730.8-594.4s-.9,16.528-3.605,16.754c-.361.031-13.73,0-13.73,0l-17.068-.163a6.3,6.3,0,0,1,5.113-5.872c4.989-1.014,13.347-5.136,16.384-12.915,3.2-8.188,12.907,2.2,12.907,2.2" transform="translate(-1797.26 1413.907)" fill="#163560"/>
        <path id="path440" d="M2844.8-594.16s-.9,16.528-3.606,16.759c-.36.031-13.729-.005-13.729-.005l-17.069-.158a6.3,6.3,0,0,1,5.113-5.872c4.988-1.014,13.347-5.136,16.384-12.92,3.2-8.183,12.907,2.2,12.907,2.2" transform="translate(-1873.245 1413.758)" fill="#163560"/>
        <path id="path442" d="M2743.86-1075.963s4.4,33.739,20.945,93.643,18.763,85.839,18.763,85.839l17.864-.546s.271-65.425-7.345-95.55-1.458-108.527-1.458-108.527l-48.769,25.141" transform="translate(-1828.898 1717.78)" fill="#163560"/>
        <path id="path444" d="M2717.887-1096.8a964.2,964.2,0,0,0,6.6,113.233c7.327,62.42,4.757,88.9,4.757,88.9l17.824.751s10.769-62.394,7.772-93.633,14.788-107.131,14.788-107.131l-51.744-2.116" transform="translate(-1811.573 1715.169)" fill="#1c468a"/>
        <path id="path446" d="M2775.629-1437.146l-9.511,7.332-13.725-3.057c.2-1.313,1.112-6.733,1.943-11.644.054-.289.1-.583.151-.867.712-4.175,1.329-7.767,1.329-7.767l12.836-6.649,4.784-2.479c-.013.089-.382,4.637-.431,5.3-.92,11.8,2.623,19.826,2.623,19.826" transform="translate(-1834.586 1936.686)" fill="#ffb27d"/>
        <path id="path448" d="M2751.978-1415.918c.267-.131,16.544-5.756,18.309-5.063s2.805,4.732,2.805,4.732l-26.619,7.037s2.1-5.026,5.5-6.707" transform="translate(-1830.64 1911.693)" fill="#ed7d2b"/>
        <path id="path450" d="M2770.385-1279.786c-2.788,14.853-48.672,16.5-60.471,2.978-1.343-1.539-1.4-8.692-.871-18.329,1.027-18.839,4.264-47.168,4.415-61.648a135.083,135.083,0,0,1,2-20.63,191.318,191.318,0,0,1,5.864-24.684s22.427-8.5,26.619-7.038c20.186,7.064,25.232,114.5,22.449,129.352" transform="translate(-1805.485 1904.582)" fill="#f99746"/>
        <path id="path452" d="M2709.66-1250.341c1.027-18.839,4.264-47.168,4.415-61.648a135.071,135.071,0,0,1,2-20.63l13.485-2.778s13.063,63.628-19.9,85.056" transform="translate(-1806.102 1859.784)" fill="#ed7d2b"/>
        <path id="path454" d="M2723.988-1189.886a4.241,4.241,0,0,1-1.023,4.338c-1.929,1.733-3.188,4.553-2.748,6.617s4.664,5.441,6.131,4.9,4.46-3.246,4.14-4.333,2.027-9.543-1.543-12.81-4.957,1.287-4.957,1.287" transform="translate(-1813.081 1773.085)" fill="#ffb27d"/>
        <path id="path456" d="M2698.433-1400.623s-13.152,2.873-23.662,21.082-17.424,31.754-15.508,38.329,19.465,29.416,22.5,29.427a8.658,8.658,0,0,0,8.217-8.445s-12.343-21.959-9.9-25.236c1.044-1.4,16.108-15.782,18.242-9.264,3.53,10.788.111-45.892.111-45.892" transform="translate(-1772.298 1899.318)" fill="#f99746"/>
        <path id="path458" d="M2775.924-1452.955c-2.823,5.625-13.325,10.472-17.7,12.253.053-.289.1-.583.151-.866.712-4.175,1.329-7.768,1.329-7.768l12.836-6.649c2.832-.037,4.557.714,3.388,3.031" transform="translate(-1838.47 1932.873)" fill="#fca56b"/>
        <path id="path460" d="M2743.045-1503.217s20.639,7.663,24.485-7.589,9.093-24.543-3.921-30.084-17.055-.619-19.385,4.107-6.446,31.181-1.178,33.566" transform="translate(-1826.647 1985.82)" fill="#ffb27d"/>
        <path id="path462" d="M2750.28-1551.075s1.285,17.768,4.4,17.006,5.931-1.329,5.464,4.023-4.788,11.528,4.8,12.5,23.413-28.193,20.79-33.729c-7.567-15.971-46.4-19.285-35.449.2" transform="translate(-1831.89 1998.641)" fill="#163560"/>
        <g id="g464" transform="translate(489.408 311.764)">
          <g id="g466" clip-path="url(#clip-path)">
            <path id="path472" d="M1467.676-1870.856h3.775v-4.328h-3.775Z" transform="translate(-1467.676 1875.185)" fill="#cde0fb"/>
          </g>
        </g>
        <path id="path474" d="M1467.676-1893.083h3.775v-4.329h-3.775Z" transform="translate(-978.268 2200.42)" fill="#cde0fb"/>
        <path id="path476" d="M1467.676-1915.309h3.775v-4.329h-3.775Z" transform="translate(-978.268 2213.892)" fill="#cde0fb"/>
        <path id="path478" d="M1467.676-1937.536h3.775v-4.329h-3.775Z" transform="translate(-978.268 2227.363)" fill="#cde0fb"/>
        <path id="path480" d="M1467.676-1959.75h3.775v-4.329h-3.775Z" transform="translate(-978.268 2240.827)" fill="#cde0fb"/>
        <path id="path482" d="M1467.676-1981.977h3.775v-4.33h-3.775Z" transform="translate(-978.268 2254.299)" fill="#cde0fb"/>
        <path id="path484" d="M1467.676-2004.2h3.775v-4.329h-3.775Z" transform="translate(-978.268 2267.77)" fill="#cde0fb"/>
        <path id="path486" d="M1467.676-2026.43h3.775v-4.329h-3.775Z" transform="translate(-978.268 2281.242)" fill="#cde0fb"/>
        <path id="path488" d="M1467.676-2048.656h3.775v-4.328h-3.775Z" transform="translate(-978.268 2294.712)" fill="#cde0fb"/>
        <path id="path490" d="M1467.676-2070.882h3.775v-4.329h-3.775Z" transform="translate(-978.268 2308.184)" fill="#cde0fb"/>
        <path id="path492" d="M1467.676-2093.1h3.775v-4.328h-3.775Z" transform="translate(-978.268 2321.647)" fill="#cde0fb"/>
        <path id="path494" d="M1467.676-2115.322h3.775v-4.329h-3.775Z" transform="translate(-978.268 2335.119)" fill="#cde0fb"/>
        <path id="path496" d="M1467.676-2137.548h3.775v-4.328h-3.775Z" transform="translate(-978.268 2348.59)" fill="#cde0fb"/>
        <path id="path498" d="M1467.676-2159.775h3.775v-4.329h-3.775Z" transform="translate(-978.268 2362.062)" fill="#cde0fb"/>
        <path id="path500" d="M1467.676-2182h3.775v-4.329h-3.775Z" transform="translate(-978.268 2375.534)" fill="#cde0fb"/>
        <path id="path502" d="M1467.676-2204.216h3.775v-4.33h-3.775Z" transform="translate(-978.268 2388.998)" fill="#cde0fb"/>
        <path id="path504" d="M1467.676-2226.442h3.775v-4.329h-3.775Z" transform="translate(-978.268 2402.469)" fill="#cde0fb"/>
        <path id="path506" d="M1467.676-2248.668h3.775V-2253h-3.775Z" transform="translate(-978.268 2415.939)" fill="#cde0fb"/>
        <path id="path508" d="M1433.076-2004.2h3.775v-4.329h-3.775Z" transform="translate(-955.206 2267.77)" fill="#cde0fb"/>
        <path id="path510" d="M1433.076-2026.43h3.775v-4.329h-3.775Z" transform="translate(-955.206 2281.242)" fill="#cde0fb"/>
        <path id="path512" d="M1433.076-2048.656h3.775v-4.328h-3.775Z" transform="translate(-955.206 2294.712)" fill="#cde0fb"/>
        <path id="path514" d="M1433.076-2070.882h3.775v-4.329h-3.775Z" transform="translate(-955.206 2308.184)" fill="#cde0fb"/>
        <path id="path516" d="M1433.076-2093.1h3.775v-4.328h-3.775Z" transform="translate(-955.206 2321.647)" fill="#cde0fb"/>
        <path id="path518" d="M1433.076-2115.322h3.775v-4.329h-3.775Z" transform="translate(-955.206 2335.119)" fill="#cde0fb"/>
        <path id="path520" d="M1433.076-2137.548h3.775v-4.328h-3.775Z" transform="translate(-955.206 2348.59)" fill="#cde0fb"/>
        <path id="path522" d="M1433.076-2159.775h3.775v-4.329h-3.775Z" transform="translate(-955.206 2362.062)" fill="#cde0fb"/>
        <path id="path524" d="M1433.076-2182h3.775v-4.329h-3.775Z" transform="translate(-955.206 2375.534)" fill="#cde0fb"/>
        <path id="path526" d="M1433.076-2204.216h3.775v-4.33h-3.775Z" transform="translate(-955.206 2388.998)" fill="#cde0fb"/>
        <path id="path528" d="M1433.076-2226.442h3.775v-4.329h-3.775Z" transform="translate(-955.206 2402.469)" fill="#cde0fb"/>
        <path id="path530" d="M1433.076-2248.668h3.775V-2253h-3.775Z" transform="translate(-955.206 2415.939)" fill="#cde0fb"/>
        <path id="path532" d="M1397.823-1870.856h3.775v-4.328h-3.775Z" transform="translate(-931.708 2186.948)" fill="#cde0fb"/>
        <path id="path534" d="M1397.823-1893.083h3.775v-4.329h-3.775Z" transform="translate(-931.708 2200.42)" fill="#cde0fb"/>
        <path id="path536" d="M1397.823-1915.309h3.775v-4.329h-3.775Z" transform="translate(-931.708 2213.892)" fill="#cde0fb"/>
        <path id="path538" d="M1397.823-1937.536h3.775v-4.329h-3.775Z" transform="translate(-931.708 2227.363)" fill="#cde0fb"/>
        <path id="path540" d="M1397.823-1959.75h3.775v-4.329h-3.775Z" transform="translate(-931.708 2240.827)" fill="#cde0fb"/>
        <path id="path542" d="M1397.823-1981.977h3.775v-4.33h-3.775Z" transform="translate(-931.708 2254.299)" fill="#cde0fb"/>
        <path id="path544" d="M1397.823-2004.2h3.775v-4.329h-3.775Z" transform="translate(-931.708 2267.77)" fill="#cde0fb"/>
        <path id="path546" d="M1397.823-2026.43h3.775v-4.329h-3.775Z" transform="translate(-931.708 2281.242)" fill="#cde0fb"/>
        <path id="path548" d="M1397.823-2048.656h3.775v-4.328h-3.775Z" transform="translate(-931.708 2294.712)" fill="#cde0fb"/>
        <path id="path550" d="M1397.823-2070.882h3.775v-4.329h-3.775Z" transform="translate(-931.708 2308.184)" fill="#cde0fb"/>
        <path id="path552" d="M1397.823-2093.1h3.775v-4.328h-3.775Z" transform="translate(-931.708 2321.647)" fill="#cde0fb"/>
        <path id="path554" d="M1397.823-2115.322h3.775v-4.329h-3.775Z" transform="translate(-931.708 2335.119)" fill="#cde0fb"/>
        <path id="path556" d="M1397.823-2137.548h3.775v-4.328h-3.775Z" transform="translate(-931.708 2348.59)" fill="#cde0fb"/>
        <path id="path558" d="M1397.823-2159.775h3.775v-4.329h-3.775Z" transform="translate(-931.708 2362.062)" fill="#cde0fb"/>
        <path id="path560" d="M1397.823-2182h3.775v-4.329h-3.775Z" transform="translate(-931.708 2375.534)" fill="#cde0fb"/>
        <path id="path562" d="M1397.823-2204.216h3.775v-4.33h-3.775Z" transform="translate(-931.708 2388.998)" fill="#cde0fb"/>
        <path id="path564" d="M1397.823-2226.442h3.775v-4.329h-3.775Z" transform="translate(-931.708 2402.469)" fill="#cde0fb"/>
        <path id="path566" d="M1397.823-2248.668h3.775V-2253h-3.775Z" transform="translate(-931.708 2415.939)" fill="#cde0fb"/>
        <path id="path568" d="M1368.13-1826.417h3.775v-4.329h-3.775Z" transform="translate(-911.916 2160.014)" fill="#cde0fb"/>
        <path id="path570" d="M1368.13-1848.629h3.775v-4.328h-3.775Z" transform="translate(-911.916 2173.476)" fill="#cde0fb"/>
        <path id="path572" d="M1368.13-1870.856h3.775v-4.328h-3.775Z" transform="translate(-911.916 2186.948)" fill="#cde0fb"/>
        <path id="path574" d="M1368.13-1893.083h3.775v-4.329h-3.775Z" transform="translate(-911.916 2200.42)" fill="#cde0fb"/>
        <path id="path576" d="M1368.13-1915.309h3.775v-4.329h-3.775Z" transform="translate(-911.916 2213.892)" fill="#cde0fb"/>
        <path id="path578" d="M1368.13-1937.536h3.775v-4.329h-3.775Z" transform="translate(-911.916 2227.363)" fill="#cde0fb"/>
        <path id="path580" d="M1368.13-1959.75h3.775v-4.329h-3.775Z" transform="translate(-911.916 2240.827)" fill="#cde0fb"/>
        <path id="path582" d="M1368.13-1981.977h3.775v-4.33h-3.775Z" transform="translate(-911.916 2254.299)" fill="#cde0fb"/>
        <path id="path584" d="M1368.13-2004.2h3.775v-4.329h-3.775Z" transform="translate(-911.916 2267.77)" fill="#cde0fb"/>
        <path id="path586" d="M1368.13-2026.43h3.775v-4.329h-3.775Z" transform="translate(-911.916 2281.242)" fill="#cde0fb"/>
        <path id="path588" d="M1368.13-2048.656h3.775v-4.328h-3.775Z" transform="translate(-911.916 2294.712)" fill="#cde0fb"/>
        <path id="path590" d="M1368.13-2070.882h3.775v-4.329h-3.775Z" transform="translate(-911.916 2308.184)" fill="#cde0fb"/>
        <path id="path592" d="M1368.13-2093.1h3.775v-4.328h-3.775Z" transform="translate(-911.916 2321.647)" fill="#cde0fb"/>
        <path id="path594" d="M1368.13-2115.322h3.775v-4.329h-3.775Z" transform="translate(-911.916 2335.119)" fill="#cde0fb"/>
        <path id="path596" d="M1368.13-2137.548h3.775v-4.328h-3.775Z" transform="translate(-911.916 2348.59)" fill="#cde0fb"/>
        <path id="path598" d="M1368.13-2159.775h3.775v-4.329h-3.775Z" transform="translate(-911.916 2362.062)" fill="#cde0fb"/>
        <path id="path600" d="M1368.13-2182h3.775v-4.329h-3.775Z" transform="translate(-911.916 2375.534)" fill="#cde0fb"/>
        <path id="path602" d="M1368.13-2204.216h3.775v-4.33h-3.775Z" transform="translate(-911.916 2388.998)" fill="#cde0fb"/>
        <path id="path604" d="M1368.13-2226.442h3.775v-4.329h-3.775Z" transform="translate(-911.916 2402.469)" fill="#cde0fb"/>
        <path id="path606" d="M1368.13-2248.668h3.775V-2253h-3.775Z" transform="translate(-911.916 2415.939)" fill="#cde0fb"/>
        <path id="path608" d="M1328.959-2026.43h3.774v-4.329h-3.774Z" transform="translate(-885.807 2281.242)" fill="#cde0fb"/>
        <path id="path610" d="M1328.959-2048.656h3.774v-4.328h-3.774Z" transform="translate(-885.807 2294.712)" fill="#cde0fb"/>
        <path id="path612" d="M1328.959-2070.882h3.774v-4.329h-3.774Z" transform="translate(-885.807 2308.184)" fill="#cde0fb"/>
        <path id="path614" d="M1328.959-2093.1h3.774v-4.328h-3.774Z" transform="translate(-885.807 2321.647)" fill="#cde0fb"/>
        <path id="path616" d="M1328.959-2115.322h3.774v-4.329h-3.774Z" transform="translate(-885.807 2335.119)" fill="#cde0fb"/>
        <path id="path618" d="M1328.959-2137.548h3.774v-4.328h-3.774Z" transform="translate(-885.807 2348.59)" fill="#cde0fb"/>
        <path id="path620" d="M1328.959-2159.775h3.774v-4.329h-3.774Z" transform="translate(-885.807 2362.062)" fill="#cde0fb"/>
        <path id="path622" d="M1328.959-2182h3.774v-4.329h-3.774Z" transform="translate(-885.807 2375.534)" fill="#cde0fb"/>
        <path id="path624" d="M1328.959-2204.216h3.774v-4.33h-3.774Z" transform="translate(-885.807 2388.998)" fill="#cde0fb"/>
        <path id="path626" d="M1328.959-2226.442h3.774v-4.329h-3.774Z" transform="translate(-885.807 2402.469)" fill="#cde0fb"/>
        <path id="path628" d="M1328.959-2248.668h3.774V-2253h-3.774Z" transform="translate(-885.807 2415.939)" fill="#cde0fb"/>
        <path id="path630" d="M3025.953-1448.257h3.775v-4.329h-3.775Z" transform="translate(-2016.925 1930.812)" fill="#cde0fb"/>
        <path id="path632" d="M3025.953-1426.044h3.775v-4.329h-3.775Z" transform="translate(-2016.925 1917.349)" fill="#cde0fb"/>
        <path id="path634" d="M3025.953-1403.817h3.775v-4.328h-3.775Z" transform="translate(-2016.925 1903.877)" fill="#cde0fb"/>
        <path id="path636" d="M3025.953-1381.59h3.775v-4.328h-3.775Z" transform="translate(-2016.925 1890.406)" fill="#cde0fb"/>
        <path id="path638" d="M3025.953-1359.365h3.775v-4.329h-3.775Z" transform="translate(-2016.925 1876.935)" fill="#cde0fb"/>
        <path id="path640" d="M3025.953-1337.141h3.775v-4.331h-3.775Z" transform="translate(-2016.925 1863.466)" fill="#cde0fb"/>
        <path id="path642" d="M3025.953-1314.923h3.775v-4.328h-3.775Z" transform="translate(-2016.925 1849.998)" fill="#cde0fb"/>
        <path id="path644" d="M3025.953-1292.7h3.775v-4.328h-3.775Z" transform="translate(-2016.925 1836.526)" fill="#cde0fb"/>
        <path id="path646" d="M3025.953-1270.469h3.775v-4.328h-3.775Z" transform="translate(-2016.925 1823.054)" fill="#cde0fb"/>
        <path id="path648" d="M3025.953-1248.243h3.775v-4.328h-3.775Z" transform="translate(-2016.925 1809.583)" fill="#cde0fb"/>
        <path id="path650" d="M3025.953-1226.016h3.775v-4.328h-3.775Z" transform="translate(-2016.925 1796.112)" fill="#cde0fb"/>
        <path id="path652" d="M3025.953-1203.8h3.775v-4.333h-3.775Z" transform="translate(-2016.925 1782.648)" fill="#cde0fb"/>
        <path id="path654" d="M3025.953-1181.577h3.775v-4.328h-3.775Z" transform="translate(-2016.925 1769.177)" fill="#cde0fb"/>
        <path id="path656" d="M3025.953-1159.35h3.775v-4.328h-3.775Z" transform="translate(-2016.925 1755.705)" fill="#cde0fb"/>
        <path id="path658" d="M3025.953-1137.123h3.775v-4.328h-3.775Z" transform="translate(-2016.925 1742.234)" fill="#cde0fb"/>
        <path id="path660" d="M3025.953-1114.9h3.775v-4.328h-3.775Z" transform="translate(-2016.925 1728.762)" fill="#cde0fb"/>
        <path id="path662" d="M3025.953-1092.677h3.775v-4.333h-3.775Z" transform="translate(-2016.925 1715.299)" fill="#cde0fb"/>
        <path id="path664" d="M3025.953-1070.456h3.775v-4.328h-3.775Z" transform="translate(-2016.925 1701.827)" fill="#cde0fb"/>
        <path id="path666" d="M3060.566-1314.923h3.775v-4.328h-3.775Z" transform="translate(-2039.996 1849.998)" fill="#cde0fb"/>
        <path id="path668" d="M3060.566-1292.7h3.775v-4.328h-3.775Z" transform="translate(-2039.996 1836.526)" fill="#cde0fb"/>
        <path id="path670" d="M3060.566-1270.469h3.775v-4.328h-3.775Z" transform="translate(-2039.996 1823.054)" fill="#cde0fb"/>
        <path id="path672" d="M3060.566-1248.243h3.775v-4.328h-3.775Z" transform="translate(-2039.996 1809.583)" fill="#cde0fb"/>
        <path id="path674" d="M3060.566-1226.016h3.775v-4.328h-3.775Z" transform="translate(-2039.996 1796.112)" fill="#cde0fb"/>
        <path id="path676" d="M3060.566-1203.8h3.775v-4.333h-3.775Z" transform="translate(-2039.996 1782.648)" fill="#cde0fb"/>
        <path id="path678" d="M3060.566-1181.577h3.775v-4.328h-3.775Z" transform="translate(-2039.996 1769.177)" fill="#cde0fb"/>
        <path id="path680" d="M3060.566-1159.35h3.775v-4.328h-3.775Z" transform="translate(-2039.996 1755.705)" fill="#cde0fb"/>
        <path id="path682" d="M3060.566-1137.123h3.775v-4.328h-3.775Z" transform="translate(-2039.996 1742.234)" fill="#cde0fb"/>
        <path id="path684" d="M3060.566-1114.9h3.775v-4.328h-3.775Z" transform="translate(-2039.996 1728.762)" fill="#cde0fb"/>
        <path id="path686" d="M3060.566-1092.677h3.775v-4.333h-3.775Z" transform="translate(-2039.996 1715.299)" fill="#cde0fb"/>
        <path id="path688" d="M3060.566-1070.456h3.775v-4.328h-3.775Z" transform="translate(-2039.996 1701.827)" fill="#cde0fb"/>
        <path id="path690" d="M3095.819-1448.257h3.775v-4.329h-3.775Z" transform="translate(-2063.494 1930.812)" fill="#cde0fb"/>
        <path id="path692" d="M3095.819-1426.044h3.775v-4.329h-3.775Z" transform="translate(-2063.494 1917.349)" fill="#cde0fb"/>
        <path id="path694" d="M3095.819-1403.817h3.775v-4.328h-3.775Z" transform="translate(-2063.494 1903.877)" fill="#cde0fb"/>
        <path id="path696" d="M3095.819-1381.59h3.775v-4.328h-3.775Z" transform="translate(-2063.494 1890.406)" fill="#cde0fb"/>
        <path id="path698" d="M3095.819-1359.365h3.775v-4.329h-3.775Z" transform="translate(-2063.494 1876.935)" fill="#cde0fb"/>
        <path id="path700" d="M3095.819-1337.141h3.775v-4.331h-3.775Z" transform="translate(-2063.494 1863.466)" fill="#cde0fb"/>
        <path id="path702" d="M3095.819-1314.923h3.775v-4.328h-3.775Z" transform="translate(-2063.494 1849.998)" fill="#cde0fb"/>
        <path id="path704" d="M3095.819-1292.7h3.775v-4.328h-3.775Z" transform="translate(-2063.494 1836.526)" fill="#cde0fb"/>
        <path id="path706" d="M3095.819-1270.469h3.775v-4.328h-3.775Z" transform="translate(-2063.494 1823.054)" fill="#cde0fb"/>
        <path id="path708" d="M3095.819-1248.243h3.775v-4.328h-3.775Z" transform="translate(-2063.494 1809.583)" fill="#cde0fb"/>
        <path id="path710" d="M3095.819-1226.016h3.775v-4.328h-3.775Z" transform="translate(-2063.494 1796.112)" fill="#cde0fb"/>
        <path id="path712" d="M3095.819-1203.8h3.775v-4.333h-3.775Z" transform="translate(-2063.494 1782.648)" fill="#cde0fb"/>
        <path id="path714" d="M3095.819-1181.577h3.775v-4.328h-3.775Z" transform="translate(-2063.494 1769.177)" fill="#cde0fb"/>
        <path id="path716" d="M3095.819-1159.35h3.775v-4.328h-3.775Z" transform="translate(-2063.494 1755.705)" fill="#cde0fb"/>
        <path id="path718" d="M3095.819-1137.123h3.775v-4.328h-3.775Z" transform="translate(-2063.494 1742.234)" fill="#cde0fb"/>
        <path id="path720" d="M3095.819-1114.9h3.775v-4.328h-3.775Z" transform="translate(-2063.494 1728.762)" fill="#cde0fb"/>
        <path id="path722" d="M3095.819-1092.677h3.775v-4.333h-3.775Z" transform="translate(-2063.494 1715.299)" fill="#cde0fb"/>
        <path id="path724" d="M3095.819-1070.456h3.775v-4.328h-3.775Z" transform="translate(-2063.494 1701.827)" fill="#cde0fb"/>
        <path id="path726" d="M3125.5-1492.711h3.775v-4.329H3125.5Z" transform="translate(-2083.277 1957.756)" fill="#cde0fb"/>
        <path id="path728" d="M3125.5-1470.484h3.775v-4.329H3125.5Z" transform="translate(-2083.277 1944.284)" fill="#cde0fb"/>
        <path id="path730" d="M3125.5-1448.257h3.775v-4.329H3125.5Z" transform="translate(-2083.277 1930.812)" fill="#cde0fb"/>
        <path id="path732" d="M3125.5-1426.044h3.775v-4.329H3125.5Z" transform="translate(-2083.277 1917.349)" fill="#cde0fb"/>
        <path id="path734" d="M3125.5-1403.817h3.775v-4.328H3125.5Z" transform="translate(-2083.277 1903.877)" fill="#cde0fb"/>
        <path id="path736" d="M3125.5-1381.59h3.775v-4.328H3125.5Z" transform="translate(-2083.277 1890.406)" fill="#cde0fb"/>
        <path id="path738" d="M3125.5-1359.365h3.775v-4.329H3125.5Z" transform="translate(-2083.277 1876.935)" fill="#cde0fb"/>
        <path id="path740" d="M3125.5-1337.141h3.775v-4.331H3125.5Z" transform="translate(-2083.277 1863.466)" fill="#cde0fb"/>
        <path id="path742" d="M3125.5-1314.923h3.775v-4.328H3125.5Z" transform="translate(-2083.277 1849.998)" fill="#cde0fb"/>
        <path id="path744" d="M3125.5-1292.7h3.775v-4.328H3125.5Z" transform="translate(-2083.277 1836.526)" fill="#cde0fb"/>
        <path id="path746" d="M3125.5-1270.469h3.775v-4.328H3125.5Z" transform="translate(-2083.277 1823.054)" fill="#cde0fb"/>
        <path id="path748" d="M3125.5-1248.243h3.775v-4.328H3125.5Z" transform="translate(-2083.277 1809.583)" fill="#cde0fb"/>
        <path id="path750" d="M3125.5-1226.016h3.775v-4.328H3125.5Z" transform="translate(-2083.277 1796.112)" fill="#cde0fb"/>
        <path id="path752" d="M3125.5-1203.8h3.775v-4.333H3125.5Z" transform="translate(-2083.277 1782.648)" fill="#cde0fb"/>
        <path id="path754" d="M3125.5-1181.577h3.775v-4.328H3125.5Z" transform="translate(-2083.277 1769.177)" fill="#cde0fb"/>
        <path id="path756" d="M3125.5-1159.35h3.775v-4.328H3125.5Z" transform="translate(-2083.277 1755.705)" fill="#cde0fb"/>
        <path id="path758" d="M3125.5-1137.123h3.775v-4.328H3125.5Z" transform="translate(-2083.277 1742.234)" fill="#cde0fb"/>
        <path id="path760" d="M3125.5-1114.9h3.775v-4.328H3125.5Z" transform="translate(-2083.277 1728.762)" fill="#cde0fb"/>
        <path id="path762" d="M3125.5-1092.677h3.775v-4.333H3125.5Z" transform="translate(-2083.277 1715.299)" fill="#cde0fb"/>
        <path id="path764" d="M3125.5-1070.456h3.775v-4.328H3125.5Z" transform="translate(-2083.277 1701.827)" fill="#cde0fb"/>
        <path id="path766" d="M3164.672-1292.7h3.775v-4.328h-3.775Z" transform="translate(-2109.387 1836.526)" fill="#cde0fb"/>
        <path id="path768" d="M3164.672-1270.469h3.775v-4.328h-3.775Z" transform="translate(-2109.387 1823.054)" fill="#cde0fb"/>
        <path id="path770" d="M3164.672-1248.243h3.775v-4.328h-3.775Z" transform="translate(-2109.387 1809.583)" fill="#cde0fb"/>
        <path id="path772" d="M3164.672-1226.016h3.775v-4.328h-3.775Z" transform="translate(-2109.387 1796.112)" fill="#cde0fb"/>
        <path id="path774" d="M3164.672-1203.8h3.775v-4.333h-3.775Z" transform="translate(-2109.387 1782.648)" fill="#cde0fb"/>
        <path id="path776" d="M3164.672-1181.577h3.775v-4.328h-3.775Z" transform="translate(-2109.387 1769.177)" fill="#cde0fb"/>
        <path id="path778" d="M3164.672-1159.35h3.775v-4.328h-3.775Z" transform="translate(-2109.387 1755.705)" fill="#cde0fb"/>
        <path id="path780" d="M3164.672-1137.123h3.775v-4.328h-3.775Z" transform="translate(-2109.387 1742.234)" fill="#cde0fb"/>
        <path id="path782" d="M3164.672-1114.9h3.775v-4.328h-3.775Z" transform="translate(-2109.387 1728.762)" fill="#cde0fb"/>
        <path id="path784" d="M3164.672-1092.677h3.775v-4.333h-3.775Z" transform="translate(-2109.387 1715.299)" fill="#cde0fb"/>
        <path id="path786" d="M3164.672-1070.456h3.775v-4.328h-3.775Z" transform="translate(-2109.387 1701.827)" fill="#cde0fb"/>
      </g>
    </g>
    <text id="SOFTWARE_CONSULTING_AND_DEVELOPMENT_FOR_YOUR_DIGITAL_SUCCESS" data-name="SOFTWARE CONSULTING
AND DEVELOPMENT
FOR YOUR DIGITAL
SUCCESS" transform="translate(84 372)" fill="#fff" font-size="40" font-family="Arial-Black, Arial Black" font-weight="800" letter-spacing="0.001em"><tspan x="0" y="0">SOFTWARE CONSULTING</tspan><tspan x="0" y="55">AND DEVELOPMENT</tspan><tspan x="0" y="110">FOR YOUR DIGITAL</tspan><tspan x="0" y="165">SUCCESS</tspan></text>
    <text id="We_orchestrate_an_inventive_mindset_and_a_structured_approach_for_the_maximum_benefit_of_our_customers." data-name="We orchestrate an inventive mindset and a 
structured approach for the maximum benefit of 
our customers." transform="translate(84 606)" fill="#fff" font-size="32" font-family="Avenir-Light, Avenir" font-weight="300"><tspan x="0" y="0">We orchestrate an inventive mindset and a </tspan><tspan x="0" y="40">structured approach for the maximum benefit of </tspan><tspan x="0" y="80">our customers.</tspan></text>
  </g>
</svg>
